<svg width="28" height="28" viewBox="0 0 28 28" fill="none" xmlns="http://www.w3.org/2000/svg">
    <path d="M28.0014 14.3109C28.0014 13.1598 27.9061 12.3198 27.6998 11.4487H14.2871V16.6442H22.1601C22.0014 17.9354 21.1442 19.8798 19.2394 21.1864L19.2127 21.3604L23.4536 24.58L23.7474 24.6087C26.4458 22.1665 28.0014 18.5731 28.0014 14.3109Z" fill="#4285F4"/>
    <path d="M14.2862 28C18.1433 28 21.3814 26.7555 23.7465 24.6089L19.2386 21.1865C18.0322 22.011 16.4132 22.5866 14.2862 22.5866C10.5085 22.5866 7.30219 20.1444 6.15923 16.7688L5.9917 16.7827L1.58202 20.1272L1.52435 20.2843C3.87353 24.8577 8.69892 28 14.2862 28Z" fill="#34A853"/>
    <path d="M6.16007 16.7688C5.85849 15.8977 5.68395 14.9643 5.68395 13.9999C5.68395 13.0354 5.85849 12.1021 6.1442 11.231L6.13621 11.0455L1.67126 7.64734L1.52518 7.71544C0.556965 9.61324 0.00140381 11.7444 0.00140381 13.9999C0.00140381 16.2555 0.556965 18.3865 1.52518 20.2843L6.16007 16.7688Z" fill="#FBBC05"/>
    <path d="M14.2863 5.4133C16.9688 5.4133 18.7783 6.54885 19.8101 7.4978L23.8418 3.64C21.3657 1.38445 18.1434 0 14.2863 0C8.69896 0 3.87354 3.1422 1.52435 7.71549L6.14339 11.2311C7.30223 7.85555 10.5086 5.4133 14.2863 5.4133Z" fill="#EB4335"/>
</svg>
