<svg width="24" height="24" viewBox="0 0 24 24" fill="none" xmlns="http://www.w3.org/2000/svg">
    <g clip-path="url(#clip0_1549_659)">
        <path d="M0 12C0 21.68 2.32 24 12 24C21.68 24 24 21.68 24 12C24 2.32 21.68 0 12 0C2.32 0 0 2.32 0 12ZM4.84 14.492L8.602 5.937C9.238 4.498 10.46 3.716 12 3.716C13.54 3.716 14.762 4.497 15.398 5.939L19.16 14.493C19.332 14.911 19.48 15.446 19.48 15.911C19.48 18.036 17.988 19.528 15.863 19.528C15.137 19.528 14.563 19.345 13.98 19.158C13.383 18.966 12.777 18.771 12 18.771C11.23 18.771 10.61 18.966 10.004 19.157C9.414 19.345 8.836 19.528 8.137 19.528C6.012 19.528 4.52 18.036 4.52 15.911C4.52 15.446 4.668 14.911 4.84 14.493V14.492ZM12 7.43L8.285 15.836C9.387 15.324 10.656 15.078 12 15.078C13.297 15.078 14.613 15.324 15.664 15.836L12 7.43Z" fill="black"/>
    </g>
    <defs>
        <clipPath id="clip0_1549_659">
            <rect width="24" height="24" fill="white"/>
        </clipPath>
    </defs>
</svg>
